<?xml version="1.0" standalone="no"?>
<!DOCTYPE svg PUBLIC "-//W3C//DTD SVG 20010904//EN"
 "http://www.w3.org/TR/2001/REC-SVG-20010904/DTD/svg10.dtd">
<svg version="1.0" xmlns="http://www.w3.org/2000/svg"
 width="330.000000pt" height="64.000000pt" viewBox="0 0 330.000000 64.000000"
 preserveAspectRatio="xMidYMid meet">

<g transform="translate(0.000000,64.000000) scale(0.100000,-0.100000)"
fill="#000000" stroke="none">
<path d="M272 499 c-73 -9 -115 -32 -108 -57 3 -9 8 -29 12 -44 7 -33 3 -32
43 -12 47 24 174 29 243 11 66 -17 79 -10 81 45 2 29 -2 33 -38 43 -59 18
-161 24 -233 14z"/>
<path d="M747 503 c-4 -3 -7 -84 -7 -180 l0 -173 55 0 55 0 0 70 0 70 50 0 50
0 0 40 0 40 -50 0 c-47 0 -50 2 -50 25 0 24 2 25 70 25 l70 0 0 45 0 45 -118
0 c-65 0 -122 -3 -125 -7z"/>
<path d="M1145 498 c-2 -7 -31 -87 -65 -177 -33 -91 -60 -166 -60 -168 0 -2
27 -3 59 -3 58 0 60 1 66 30 6 29 8 30 65 30 56 0 58 -1 69 -30 9 -28 13 -30
65 -30 31 0 56 4 56 8 0 10 -116 327 -125 342 -9 15 -125 13 -130 -2z m94
-195 c1 -8 -11 -13 -30 -13 -33 0 -33 3 -7 70 l10 25 13 -35 c8 -19 14 -41 14
-47z"/>
<path d="M1495 495 c-42 -22 -55 -43 -55 -90 0 -56 18 -77 94 -109 36 -16 66
-34 66 -42 0 -19 -39 -18 -46 1 -5 11 -21 15 -60 15 -50 0 -54 -2 -54 -23 0
-75 121 -122 215 -83 36 15 65 59 65 100 0 37 -44 82 -101 102 -60 22 -75 36
-54 54 12 10 16 9 21 -4 5 -12 20 -16 65 -16 65 0 75 13 43 58 -35 50 -136 69
-199 37z"/>
<path d="M1777 503 c-4 -3 -7 -84 -7 -180 l0 -173 55 0 55 0 0 70 0 70 55 0
55 0 0 -70 0 -70 55 0 55 0 0 180 0 180 -55 0 -55 0 0 -65 0 -65 -55 0 -55 0
0 65 0 65 -48 0 c-27 0 -52 -3 -55 -7z"/>
<path d="M2170 330 l0 -181 53 3 52 3 0 175 0 175 -52 3 -53 3 0 -181z"/>
<path d="M2425 487 c-127 -72 -124 -249 5 -314 80 -41 182 -20 231 48 20 29
24 46 24 109 0 63 -4 80 -23 108 -51 70 -159 93 -237 49z m135 -97 c13 -13 20
-33 20 -60 0 -107 -131 -107 -134 -1 0 34 4 47 23 62 30 25 66 24 91 -1z"/>
<path d="M2750 330 l0 -180 55 0 54 0 3 87 3 86 58 -86 57 -87 55 0 55 0 0
180 0 180 -55 0 -55 0 0 -92 0 -93 -61 93 -62 92 -53 0 -54 0 0 -180z"/>
<path d="M223 378 c-13 -6 -23 -19 -23 -30 0 -19 15 -25 24 -9 4 5 24 12 47
16 37 6 39 8 22 21 -21 16 -40 17 -70 2z"/>
<path d="M253 338 c-39 -13 -43 -36 -12 -79 15 -21 24 -27 33 -20 20 17 90 24
130 13 21 -6 43 -9 49 -6 16 6 48 64 42 75 -17 27 -176 38 -242 17z"/>
<path d="M310 241 c-37 -10 -35 -34 5 -70 38 -33 55 -32 85 4 11 13 9 20 -15
45 -30 31 -34 32 -75 21z"/>
</g>
</svg>
